@startuml
' uncomment the line below if you're using computer with a retina display
' skinparam dpi 300
!define Table(name,desc) class name as "desc" << (T,#FFAAAA) >>
!define ForeignTable(name,desc) class name as "desc" << (T,#ada6a6) >>
!define TranslationTable(name,desc) class name as "desc" << (I,#4286f4) >>
' we use bold for primary key
' green color for unique
' and underscore for not_null
!define primary_key(x) <b>x</b>
!define unique(x) <color:green>x</color>
!define not_null(x) <u>x</u>
' other tags available:
' <i></i>
' <back:COLOR></color>, where color is a color name or html color code
' (#FFAACC)
' see: http://plantuml.com/classes.html#More
hide methods
hide stereotypes
hide empty members
skinparam backgroundColor #FFFFFF

' entities

Table(ShopwareStorefrontFrameworkSeoSeoUrlSeoUrlDefinition, "seo_url\n(Seo urls)") {
   primary_key(id) id
   not_null(salesChannelId) foreignKey
   not_null(foreignKey) id
   not_null(routeName) string
   not_null(pathInfo) string
   not_null(seoPathInfo) string
   isCanonical bool
   isModified bool
   isDeleted bool
   isValid bool
   autoIncrement int
   attributes attributes
   not_null(createdAt) createdAt
   not_null(updatedAt) updatedAt
   url string
}
Table(ShopwareStorefrontFrameworkSeoSeoUrlTemplateSeoUrlTemplateDefinition, "seo_url_template\n(Template)") {
   primary_key(id) id
   salesChannelId foreignKey
   not_null(entityName) string
   not_null(routeName) string
   not_null(template) string
   isValid bool
   not_null(createdAt) createdAt
   not_null(updatedAt) updatedAt
   attributes attributes
}
ForeignTable(ShopwareCoreSystemSalesChannelSalesChannelDefinition, "sales_channel") {
}

' relationshipd

ShopwareStorefrontFrameworkSeoSeoUrlSeoUrlDefinition --> ShopwareCoreSystemSalesChannelSalesChannelDefinition
ShopwareStorefrontFrameworkSeoSeoUrlTemplateSeoUrlTemplateDefinition --> ShopwareCoreSystemSalesChannelSalesChannelDefinition
@enduml
