@startuml
' uncomment the line below if you're using computer with a retina display
' skinparam dpi 300
!define Table(name,desc) class name as "desc" << (T,#FFAAAA) >>
!define ForeignTable(name,desc) class name as "desc" << (T,#ada6a6) >>
!define TranslationTable(name,desc) class name as "desc" << (I,#4286f4) >>
' we use bold for primary key
' green color for unique
' and underscore for not_null
!define primary_key(x) <b>x</b>
!define unique(x) <color:green>x</color>
!define not_null(x) <u>x</u>
' other tags available:
' <i></i>
' <back:COLOR></color>, where color is a color name or html color code
' (#FFAACC)
' see: http://plantuml.com/classes.html#More
hide methods
hide stereotypes
hide empty members
skinparam backgroundColor #FFFFFF

' entities

Table(ShopwareCoreSystemIntegrationIntegrationDefinition, "integration\n(O-Auth integration)") {
   primary_key(id) id
   not_null(label) string
   not_null(accessKey) string
   not_null(secretAccessKey) password
   writeAccess bool
   lastUsageAt dateTime
   admin bool
   customFields customFields
   not_null(createdAt) createdAt
   updatedAt updatedAt
}
Table(ShopwareCoreSystemIntegrationAggregateIntegrationRoleIntegrationRoleDefinition, "integration_role\n(M:N Mapping)") {
   primary_key(integrationId) foreignKey
   primary_key(aclRoleId) foreignKey
}
ForeignTable(ShopwareCoreFrameworkAppAppDefinition, "app") {
}
ForeignTable(ShopwareCoreFrameworkApiAclRoleAclRoleDefinition, "acl_role") {
}

' relationshipd

ShopwareCoreSystemIntegrationIntegrationDefinition --> ShopwareCoreFrameworkAppAppDefinition
ShopwareCoreSystemIntegrationAggregateIntegrationRoleIntegrationRoleDefinition --> ShopwareCoreSystemIntegrationIntegrationDefinition
ShopwareCoreSystemIntegrationAggregateIntegrationRoleIntegrationRoleDefinition --> ShopwareCoreFrameworkApiAclRoleAclRoleDefinition
@enduml
