@startuml
' uncomment the line below if you're using computer with a retina display
' skinparam dpi 300
!define Table(name,desc) class name as "desc" << (T,#FFAAAA) >>
!define ForeignTable(name,desc) class name as "desc" << (T,#ada6a6) >>
!define TranslationTable(name,desc) class name as "desc" << (I,#4286f4) >>
' we use bold for primary key
' green color for unique
' and underscore for not_null
!define primary_key(x) <b>x</b>
!define unique(x) <color:green>x</color>
!define not_null(x) <u>x</u>
' other tags available:
' <i></i>
' <back:COLOR></color>, where color is a color name or html color code
' (#FFAACC)
' see: http://plantuml.com/classes.html#More
hide methods
hide stereotypes
hide empty members
skinparam backgroundColor #FFFFFF

' entities

Table(ShopwareCoreSystemNumberRangeNumberRangeDefinition, "number_range\n(Number range)") {
   primary_key(id) id
   not_null(typeId) foreignKey
   name string
   description string
   pattern string
   start int
   not_null(createdAt) createdAt
   not_null(updatedAt) updatedAt
}
Table(ShopwareCoreSystemNumberRangeAggregateNumberRangeSalesChannelNumberRangeSalesChannelDefinition, "number_range_sales_channel\n(M:N Mapping)") {
   primary_key(numberRangeId) foreignKey
   primary_key(salesChannelId) foreignKey
}
Table(ShopwareCoreSystemNumberRangeAggregateNumberRangeStateNumberRangeStateDefinition, "number_range_state\n(Current number range max value)") {
   not_null(numberRangeId) foreignKey
   not_null(lastValue) int
}
Table(ShopwareCoreSystemNumberRangeAggregateNumberRangeTypeNumberRangeTypeDefinition, "number_range_type\n(Type)") {
   primary_key(id) id
   not_null(typeName) string
   not_null(global) bool
}
ForeignTable(ShopwareCoreSystemSalesChannelSalesChannelDefinition, "sales_channel") {
}

' relationshipd

ShopwareCoreSystemNumberRangeAggregateNumberRangeTypeNumberRangeTypeDefinition --> ShopwareCoreSystemNumberRangeNumberRangeDefinition
ShopwareCoreSystemNumberRangeAggregateNumberRangeSalesChannelNumberRangeSalesChannelDefinition --> ShopwareCoreSystemNumberRangeNumberRangeDefinition
ShopwareCoreSystemNumberRangeAggregateNumberRangeStateNumberRangeStateDefinition --> ShopwareCoreSystemNumberRangeNumberRangeDefinition
ShopwareCoreSystemNumberRangeAggregateNumberRangeSalesChannelNumberRangeSalesChannelDefinition --> ShopwareCoreSystemSalesChannelSalesChannelDefinition
@enduml
