@startuml
' uncomment the line below if you're using computer with a retina display
' skinparam dpi 300
!define Table(name,desc) class name as "desc" << (T,#FFAAAA) >>
!define ForeignTable(name,desc) class name as "desc" << (T,#ada6a6) >>
!define TranslationTable(name,desc) class name as "desc" << (I,#4286f4) >>
' we use bold for primary key
' green color for unique
' and underscore for not_null
!define primary_key(x) <b>x</b>
!define unique(x) <color:green>x</color>
!define not_null(x) <u>x</u>
' other tags available:
' <i></i>
' <back:COLOR></color>, where color is a color name or html color code
' (#FFAACC)
' see: http://plantuml.com/classes.html#More
hide methods
hide stereotypes
hide empty members
skinparam backgroundColor #FFFFFF

' entities

Table(ShopwareCoreContentCategoryCategoryDefinition, "category\n(Category tree)") {
   primary_key(id) id
   primary_key(versionId) version
   parentId parentFk
   not_null(parentVersionId) referenceVersion
   afterCategoryId foreignKey
   not_null(afterCategoryVersionId) referenceVersion
   mediaId foreignKey
   not_null(displayNestedProducts) bool
   autoIncrement int
   path treePath
   level treeLevel
   active bool
   childCount childCount
   not_null(createdAt) createdAt
   not_null(updatedAt) updatedAt
   name translated
   attributes translated
}
TranslationTable(ShopwareCoreContentCategoryAggregateCategoryTranslationCategoryTranslationDefinition, "category_translation\n((Translations))") {
   not_null(name) string
   attributes attributes
   primary_key(categoryId) foreignKey
   primary_key(languageId) foreignKey
   not_null(createdAt) createdAt
   not_null(updatedAt) updatedAt
   primary_key(categoryVersionId) referenceVersion
}
Table(ShopwareCoreContentCategoryAggregateCategoryTagCategoryTagDefinition, "category_tag\n(M:N Mapping)") {
   primary_key(categoryId) foreignKey
   primary_key(categoryVersionId) referenceVersion
   primary_key(tagId) foreignKey
   not_null(createdAt) createdAt
   not_null(updatedAt) updatedAt
}
ForeignTable(ShopwareCoreContentMediaMediaDefinition, "media") {
}
ForeignTable(ShopwareCoreContentNavigationNavigationDefinition, "navigation") {
}
ForeignTable(ShopwareCoreContentProductAggregateProductCategoryProductCategoryDefinition, "product_category") {
}
ForeignTable(ShopwareCoreContentProductAggregateProductCategoryTreeProductCategoryTreeDefinition, "product_category_tree") {
}
ForeignTable(ShopwareCoreSystemLanguageLanguageDefinition, "language") {
}
ForeignTable(ShopwareCoreFrameworkTagTagDefinition, "tag") {
}

' relationshipd

ShopwareCoreContentCategoryCategoryDefinition --> ShopwareCoreContentCategoryCategoryDefinition
ShopwareCoreContentCategoryCategoryDefinition --> ShopwareCoreContentMediaMediaDefinition
ShopwareCoreContentCategoryAggregateCategoryTranslationCategoryTranslationDefinition --> ShopwareCoreContentCategoryCategoryDefinition
ShopwareCoreContentCategoryCategoryDefinition --> ShopwareCoreContentNavigationNavigationDefinition
ShopwareCoreContentCategoryCategoryDefinition --> ShopwareCoreContentProductAggregateProductCategoryProductCategoryDefinition
ShopwareCoreContentCategoryCategoryDefinition --> ShopwareCoreContentProductAggregateProductCategoryTreeProductCategoryTreeDefinition
ShopwareCoreContentCategoryAggregateCategoryTagCategoryTagDefinition --> ShopwareCoreContentCategoryCategoryDefinition
ShopwareCoreContentCategoryAggregateCategoryTranslationCategoryTranslationDefinition --> ShopwareCoreSystemLanguageLanguageDefinition
ShopwareCoreContentCategoryAggregateCategoryTagCategoryTagDefinition --> ShopwareCoreFrameworkTagTagDefinition
@enduml
