@startuml
' uncomment the line below if you're using computer with a retina display
' skinparam dpi 300
!define Table(name,desc) class name as "desc" << (T,#FFAAAA) >>
!define ForeignTable(name,desc) class name as "desc" << (T,#ada6a6) >>
!define TranslationTable(name,desc) class name as "desc" << (I,#4286f4) >>
' we use bold for primary key
' green color for unique
' and underscore for not_null
!define primary_key(x) <b>x</b>
!define unique(x) <color:green>x</color>
!define not_null(x) <u>x</u>
' other tags available:
' <i></i>
' <back:COLOR></color>, where color is a color name or html color code
' (#FFAACC)
' see: http://plantuml.com/classes.html#More
hide methods
hide stereotypes
hide empty members
skinparam backgroundColor #FFFFFF

' entities

Table(ShopwareCoreCheckoutShippingShippingMethodDefinition, "shipping_method\n(Shipping method)") {
   primary_key(id) id
   not_null(bindShippingfree) bool
   name translated
   active bool
   calculation int
   minDeliveryTime int
   maxDeliveryTime int
   shippingFree float
   attributes translated
   not_null(createdAt) createdAt
   not_null(updatedAt) updatedAt
   description translated
   comment translated
}
Table(ShopwareCoreCheckoutShippingAggregateShippingMethodPriceShippingMethodPriceDefinition, "shipping_method_price\n(Prices of a shipping method)") {
   primary_key(id) id
   not_null(shippingMethodId) foreignKey
   not_null(quantityFrom) float
   not_null(price) float
   not_null(factor) float
   attributes attributes
   not_null(createdAt) createdAt
   not_null(updatedAt) updatedAt
}
TranslationTable(ShopwareCoreCheckoutShippingAggregateShippingMethodTranslationShippingMethodTranslationDefinition, "shipping_method_translation\n((Translations))") {
   not_null(name) string
   description longText
   comment string
   attributes attributes
   primary_key(shippingMethodId) foreignKey
   primary_key(languageId) foreignKey
   not_null(createdAt) createdAt
   not_null(updatedAt) updatedAt
}
ForeignTable(ShopwareCoreSystemSalesChannelSalesChannelDefinition, "sales_channel") {
}
ForeignTable(ShopwareCoreCheckoutOrderAggregateOrderDeliveryOrderDeliveryDefinition, "order_delivery") {
}
ForeignTable(ShopwareCoreSystemSalesChannelAggregateSalesChannelShippingMethodSalesChannelShippingMethodDefinition, "sales_channel_shipping_method") {
}
ForeignTable(ShopwareCoreCheckoutShippingAggregateShippingMethodRulesShippingMethodRuleDefinition, "shipping_method_rule") {
}
ForeignTable(ShopwareCoreSystemLanguageLanguageDefinition, "language") {
}

' relationshipd

ShopwareCoreCheckoutShippingShippingMethodDefinition --> ShopwareCoreSystemSalesChannelSalesChannelDefinition
ShopwareCoreCheckoutShippingShippingMethodDefinition --> ShopwareCoreCheckoutOrderAggregateOrderDeliveryOrderDeliveryDefinition
ShopwareCoreCheckoutShippingAggregateShippingMethodPriceShippingMethodPriceDefinition --> ShopwareCoreCheckoutShippingShippingMethodDefinition
ShopwareCoreCheckoutShippingAggregateShippingMethodTranslationShippingMethodTranslationDefinition --> ShopwareCoreCheckoutShippingShippingMethodDefinition
ShopwareCoreCheckoutShippingShippingMethodDefinition --> ShopwareCoreSystemSalesChannelAggregateSalesChannelShippingMethodSalesChannelShippingMethodDefinition
ShopwareCoreCheckoutShippingShippingMethodDefinition --> ShopwareCoreCheckoutShippingAggregateShippingMethodRulesShippingMethodRuleDefinition
ShopwareCoreCheckoutShippingAggregateShippingMethodTranslationShippingMethodTranslationDefinition --> ShopwareCoreSystemLanguageLanguageDefinition
@enduml
