@startuml
' uncomment the line below if you're using computer with a retina display
' skinparam dpi 300
!define Table(name,desc) class name as "desc" << (T,#FFAAAA) >>
!define ForeignTable(name,desc) class name as "desc" << (T,#ada6a6) >>
!define TranslationTable(name,desc) class name as "desc" << (I,#4286f4) >>
' we use bold for primary key
' green color for unique
' and underscore for not_null
!define primary_key(x) <b>x</b>
!define unique(x) <color:green>x</color>
!define not_null(x) <u>x</u>
' other tags available:
' <i></i>
' <back:COLOR></color>, where color is a color name or html color code
' (#FFAACC)
' see: http://plantuml.com/classes.html#More
hide methods
hide stereotypes
hide empty members
skinparam backgroundColor #FFFFFF

' entities

Table(ShopwareCoreSystemSalesChannelSalesChannelDefinition, "sales_channel\n(Sales Channel)") {
   primary_key(id) id
   not_null(typeId) foreignKey
   not_null(languageId) foreignKey
   not_null(currencyId) foreignKey
   not_null(paymentMethodId) foreignKey
   not_null(shippingMethodId) foreignKey
   not_null(countryId) foreignKey
   navigationId foreignKey
   navigationVersionId referenceVersion
   mailHeaderFooterId foreignKey
   name translated
   shortName string
   not_null(accessKey) string
   configuration json
   active bool
   taxCalculationType string
   attributes translated
   not_null(createdAt) createdAt
   not_null(updatedAt) updatedAt
}
TranslationTable(ShopwareCoreSystemSalesChannelAggregateSalesChannelTranslationSalesChannelTranslationDefinition, "sales_channel_translation\n((Translations))") {
   not_null(name) string
   attributes attributes
   primary_key(salesChannelId) foreignKey
   primary_key(languageId) foreignKey
   not_null(createdAt) createdAt
   not_null(updatedAt) updatedAt
}
Table(ShopwareCoreSystemSalesChannelAggregateSalesChannelCountrySalesChannelCountryDefinition, "sales_channel_country\n(M:N Mapping)") {
   primary_key(salesChannelId) foreignKey
   primary_key(countryId) foreignKey
   not_null(createdAt) createdAt
   not_null(updatedAt) updatedAt
}
Table(ShopwareCoreSystemSalesChannelAggregateSalesChannelCurrencySalesChannelCurrencyDefinition, "sales_channel_currency\n(M:N Mapping)") {
   primary_key(salesChannelId) foreignKey
   primary_key(currencyId) foreignKey
   not_null(createdAt) createdAt
   not_null(updatedAt) updatedAt
}
Table(ShopwareCoreSystemSalesChannelAggregateSalesChannelDomainSalesChannelDomainDefinition, "sales_channel_domain\n(Domain names of a sales channels)") {
   primary_key(id) id
   not_null(url) string
   not_null(salesChannelId) foreignKey
   not_null(languageId) foreignKey
   not_null(currencyId) foreignKey
   not_null(snippetSetId) foreignKey
   not_null(createdAt) createdAt
   not_null(updatedAt) updatedAt
   attributes attributes
}
Table(ShopwareCoreSystemSalesChannelAggregateSalesChannelLanguageSalesChannelLanguageDefinition, "sales_channel_language\n(M:N Mapping)") {
   primary_key(salesChannelId) foreignKey
   primary_key(languageId) foreignKey
   not_null(createdAt) createdAt
   not_null(updatedAt) updatedAt
}
Table(ShopwareCoreSystemSalesChannelAggregateSalesChannelPaymentMethodSalesChannelPaymentMethodDefinition, "sales_channel_payment_method\n(M:N Mapping)") {
   primary_key(salesChannelId) foreignKey
   primary_key(paymentMethodId) foreignKey
   not_null(createdAt) createdAt
   not_null(updatedAt) updatedAt
}
Table(ShopwareCoreSystemSalesChannelAggregateSalesChannelShippingMethodSalesChannelShippingMethodDefinition, "sales_channel_shipping_method\n(M:N Mapping)") {
   primary_key(salesChannelId) foreignKey
   primary_key(shippingMethodId) foreignKey
   not_null(createdAt) createdAt
   not_null(updatedAt) updatedAt
}
Table(ShopwareCoreSystemSalesChannelAggregateSalesChannelTypeSalesChannelTypeDefinition, "sales_channel_type\n(Type)") {
   primary_key(id) id
   coverUrl string
   iconName string
   screenshotUrls list
   name translated
   manufacturer translated
   description translated
   descriptionLong translated
   attributes translated
   not_null(createdAt) createdAt
   not_null(updatedAt) updatedAt
}
TranslationTable(ShopwareCoreSystemSalesChannelAggregateSalesChannelTypeTranslationSalesChannelTypeTranslationDefinition, "sales_channel_type_translation\n((Translations))") {
   not_null(name) string
   manufacturer string
   description string
   descriptionLong longTextWithHtml
   attributes attributes
   primary_key(salesChannelTypeId) foreignKey
   primary_key(languageId) foreignKey
   not_null(createdAt) createdAt
   not_null(updatedAt) updatedAt
}
ForeignTable(ShopwareCoreSystemLanguageLanguageDefinition, "language") {
}
ForeignTable(ShopwareCoreSystemCurrencyCurrencyDefinition, "currency") {
}
ForeignTable(ShopwareCoreCheckoutPaymentPaymentMethodDefinition, "payment_method") {
}
ForeignTable(ShopwareCoreCheckoutShippingShippingMethodDefinition, "shipping_method") {
}
ForeignTable(ShopwareCoreSystemCountryCountryDefinition, "country") {
}
ForeignTable(ShopwareCoreCheckoutOrderOrderDefinition, "order") {
}
ForeignTable(ShopwareCoreCheckoutCustomerCustomerDefinition, "customer") {
}
ForeignTable(ShopwareCoreSystemSystemConfigSystemConfigDefinition, "system_config") {
}
ForeignTable(ShopwareCoreContentNavigationNavigationDefinition, "navigation") {
}
ForeignTable(ShopwareCoreContentProductAggregateProductVisibilityProductVisibilityDefinition, "product_visibility") {
}
ForeignTable(ShopwareCoreContentMailTemplateAggregateMailHeaderFooterMailHeaderFooterDefinition, "mail_header_footer") {
}
ForeignTable(ShopwareCoreContentMailTemplateAggregateMailTemplateSalesChannelMailTemplateSalesChannelDefinition, "mail_template_sales_channel") {
}
ForeignTable(ShopwareCoreSystemNumberRangeAggregateNumberRangeSalesChannelNumberRangeSalesChannelDefinition, "number_range_sales_channel") {
}
ForeignTable(ShopwareStorefrontFrameworkSeoSeoUrlDefinition, "seo_url") {
}
ForeignTable(ShopwareCoreFrameworkSnippetAggregateSnippetSetSnippetSetDefinition, "snippet_set") {
}

' relationshipd

ShopwareCoreSystemSalesChannelAggregateSalesChannelTypeSalesChannelTypeDefinition --> ShopwareCoreSystemSalesChannelSalesChannelDefinition
ShopwareCoreSystemSalesChannelAggregateSalesChannelTranslationSalesChannelTranslationDefinition --> ShopwareCoreSystemSalesChannelSalesChannelDefinition
ShopwareCoreSystemSalesChannelAggregateSalesChannelCurrencySalesChannelCurrencyDefinition --> ShopwareCoreSystemSalesChannelSalesChannelDefinition
ShopwareCoreSystemSalesChannelAggregateSalesChannelLanguageSalesChannelLanguageDefinition --> ShopwareCoreSystemSalesChannelSalesChannelDefinition
ShopwareCoreSystemSalesChannelAggregateSalesChannelCountrySalesChannelCountryDefinition --> ShopwareCoreSystemSalesChannelSalesChannelDefinition
ShopwareCoreSystemSalesChannelAggregateSalesChannelPaymentMethodSalesChannelPaymentMethodDefinition --> ShopwareCoreSystemSalesChannelSalesChannelDefinition
ShopwareCoreSystemSalesChannelAggregateSalesChannelShippingMethodSalesChannelShippingMethodDefinition --> ShopwareCoreSystemSalesChannelSalesChannelDefinition
ShopwareCoreSystemSalesChannelSalesChannelDefinition --> ShopwareCoreSystemLanguageLanguageDefinition
ShopwareCoreSystemSalesChannelSalesChannelDefinition --> ShopwareCoreSystemCurrencyCurrencyDefinition
ShopwareCoreSystemSalesChannelSalesChannelDefinition --> ShopwareCoreCheckoutPaymentPaymentMethodDefinition
ShopwareCoreSystemSalesChannelSalesChannelDefinition --> ShopwareCoreCheckoutShippingShippingMethodDefinition
ShopwareCoreSystemSalesChannelSalesChannelDefinition --> ShopwareCoreSystemCountryCountryDefinition
ShopwareCoreSystemSalesChannelSalesChannelDefinition --> ShopwareCoreCheckoutOrderOrderDefinition
ShopwareCoreSystemSalesChannelSalesChannelDefinition --> ShopwareCoreCheckoutCustomerCustomerDefinition
ShopwareCoreSystemSalesChannelAggregateSalesChannelDomainSalesChannelDomainDefinition --> ShopwareCoreSystemSalesChannelSalesChannelDefinition
ShopwareCoreSystemSalesChannelSalesChannelDefinition --> ShopwareCoreSystemSystemConfigSystemConfigDefinition
ShopwareCoreSystemSalesChannelSalesChannelDefinition --> ShopwareCoreContentNavigationNavigationDefinition
ShopwareCoreSystemSalesChannelSalesChannelDefinition --> ShopwareCoreContentProductAggregateProductVisibilityProductVisibilityDefinition
ShopwareCoreSystemSalesChannelSalesChannelDefinition --> ShopwareCoreContentMailTemplateAggregateMailHeaderFooterMailHeaderFooterDefinition
ShopwareCoreSystemSalesChannelSalesChannelDefinition --> ShopwareCoreContentMailTemplateAggregateMailTemplateSalesChannelMailTemplateSalesChannelDefinition
ShopwareCoreSystemSalesChannelSalesChannelDefinition --> ShopwareCoreSystemNumberRangeAggregateNumberRangeSalesChannelNumberRangeSalesChannelDefinition
ShopwareCoreSystemSalesChannelSalesChannelDefinition --> ShopwareStorefrontFrameworkSeoSeoUrlDefinition
ShopwareCoreSystemSalesChannelAggregateSalesChannelTranslationSalesChannelTranslationDefinition --> ShopwareCoreSystemLanguageLanguageDefinition
ShopwareCoreSystemSalesChannelAggregateSalesChannelCountrySalesChannelCountryDefinition --> ShopwareCoreSystemCountryCountryDefinition
ShopwareCoreSystemSalesChannelAggregateSalesChannelCurrencySalesChannelCurrencyDefinition --> ShopwareCoreSystemCurrencyCurrencyDefinition
ShopwareCoreSystemSalesChannelAggregateSalesChannelDomainSalesChannelDomainDefinition --> ShopwareCoreSystemLanguageLanguageDefinition
ShopwareCoreSystemSalesChannelAggregateSalesChannelDomainSalesChannelDomainDefinition --> ShopwareCoreSystemCurrencyCurrencyDefinition
ShopwareCoreSystemSalesChannelAggregateSalesChannelDomainSalesChannelDomainDefinition --> ShopwareCoreFrameworkSnippetAggregateSnippetSetSnippetSetDefinition
ShopwareCoreSystemSalesChannelAggregateSalesChannelLanguageSalesChannelLanguageDefinition --> ShopwareCoreSystemLanguageLanguageDefinition
ShopwareCoreSystemSalesChannelAggregateSalesChannelPaymentMethodSalesChannelPaymentMethodDefinition --> ShopwareCoreCheckoutPaymentPaymentMethodDefinition
ShopwareCoreSystemSalesChannelAggregateSalesChannelShippingMethodSalesChannelShippingMethodDefinition --> ShopwareCoreCheckoutShippingShippingMethodDefinition
ShopwareCoreSystemSalesChannelAggregateSalesChannelTypeTranslationSalesChannelTypeTranslationDefinition --> ShopwareCoreSystemSalesChannelAggregateSalesChannelTypeSalesChannelTypeDefinition
ShopwareCoreSystemSalesChannelAggregateSalesChannelTypeTranslationSalesChannelTypeTranslationDefinition --> ShopwareCoreSystemLanguageLanguageDefinition
@enduml
