@startuml
' uncomment the line below if you're using computer with a retina display
' skinparam dpi 300
!define Table(name,desc) class name as "desc" << (T,#FFAAAA) >>
!define ForeignTable(name,desc) class name as "desc" << (T,#ada6a6) >>
!define TranslationTable(name,desc) class name as "desc" << (I,#4286f4) >>
' we use bold for primary key
' green color for unique
' and underscore for not_null
!define primary_key(x) <b>x</b>
!define unique(x) <color:green>x</color>
!define not_null(x) <u>x</u>
' other tags available:
' <i></i>
' <back:COLOR></color>, where color is a color name or html color code
' (#FFAACC)
' see: http://plantuml.com/classes.html#More
hide methods
hide stereotypes
hide empty members
skinparam backgroundColor #FFFFFF

' entities

Table(ShopwareCoreContentRuleRuleDefinition, "rule\n(Rule)") {
   primary_key(id) id
   not_null(name) string
   not_null(priority) int
   description longText
   payload blob
   invalid bool
   attributes attributes
   not_null(createdAt) createdAt
   not_null(updatedAt) updatedAt
   moduleTypes json
}
Table(ShopwareCoreContentRuleAggregateRuleConditionRuleConditionDefinition, "rule_condition\n(Rule condition)") {
   primary_key(id) id
   type string
   not_null(ruleId) foreignKey
   parentId parentFk
   value json
   position int
   attributes attributes
}
ForeignTable(ShopwareCoreCheckoutDiscountSurchargeDiscountSurchargeDefinition, "discount_surcharge") {
}
ForeignTable(ShopwareCoreContentProductAggregateProductPriceRuleProductPriceRuleDefinition, "product_price_rule") {
}
ForeignTable(ShopwareCoreCheckoutShippingAggregateShippingMethodRulesShippingMethodRuleDefinition, "shipping_method_rule") {
}
ForeignTable(ShopwareCoreCheckoutPaymentAggregatePaymentMethodRulesPaymentMethodRuleDefinition, "payment_method_rule") {
}

' relationshipd

ShopwareCoreContentRuleAggregateRuleConditionRuleConditionDefinition --> ShopwareCoreContentRuleRuleDefinition
ShopwareCoreContentRuleRuleDefinition --> ShopwareCoreCheckoutDiscountSurchargeDiscountSurchargeDefinition
ShopwareCoreContentRuleRuleDefinition --> ShopwareCoreContentProductAggregateProductPriceRuleProductPriceRuleDefinition
ShopwareCoreContentRuleRuleDefinition --> ShopwareCoreCheckoutShippingAggregateShippingMethodRulesShippingMethodRuleDefinition
ShopwareCoreContentRuleRuleDefinition --> ShopwareCoreCheckoutPaymentAggregatePaymentMethodRulesPaymentMethodRuleDefinition
ShopwareCoreContentRuleAggregateRuleConditionRuleConditionDefinition --> ShopwareCoreContentRuleAggregateRuleConditionRuleConditionDefinition
@enduml
