@startuml
' uncomment the line below if you're using computer with a retina display
' skinparam dpi 300
!define Table(name,desc) class name as "desc" << (T,#FFAAAA) >>
!define ForeignTable(name,desc) class name as "desc" << (T,#ada6a6) >>
!define TranslationTable(name,desc) class name as "desc" << (I,#4286f4) >>
' we use bold for primary key
' green color for unique
' and underscore for not_null
!define primary_key(x) <b>x</b>
!define unique(x) <color:green>x</color>
!define not_null(x) <u>x</u>
' other tags available:
' <i></i>
' <back:COLOR></color>, where color is a color name or html color code
' (#FFAACC)
' see: http://plantuml.com/classes.html#More
hide methods
hide stereotypes
hide empty members
skinparam backgroundColor #FFFFFF

' entities

Table(ShopwareCoreCheckoutCustomerCustomerDefinition, "customer\n(The sales channel customer)") {
   primary_key(id) id
   not_null(groupId) foreignKey
   not_null(defaultPaymentMethodId) foreignKey
   not_null(salesChannelId) foreignKey
   not_null(languageId) foreignKey
   lastPaymentMethodId foreignKey
   not_null(defaultBillingAddressId) foreignKey
   not_null(defaultShippingAddressId) foreignKey
   autoIncrement int
   not_null(customerNumber) numberRange
   not_null(salutationId) foreignKey
   not_null(firstName) string
   not_null(lastName) string
   company string
   password password
   not_null(email) string
   title string
   encoder string
   active bool
   guest bool
   confirmationKey string
   firstLogin date
   lastLogin date
   sessionId string
   newsletter bool
   validation string
   affiliate bool
   referer string
   internalComment longText
   failedLogins int
   lockedUntil date
   birthday date
   attributes attributes
   not_null(createdAt) createdAt
   not_null(updatedAt) updatedAt
}
TranslationTable(ShopwareCoreCheckoutCustomerAggregateCustomerGroupTranslationCustomerGroupTranslationDefinition, "customer_group_translation\n((Translations))") {
   not_null(name) string
   attributes attributes
   primary_key(customerGroupId) foreignKey
   primary_key(languageId) foreignKey
   not_null(createdAt) createdAt
   not_null(updatedAt) updatedAt
}
Table(ShopwareCoreCheckoutCustomerAggregateCustomerAddressCustomerAddressDefinition, "customer_address\n(The customer addresses.)") {
   primary_key(id) id
   not_null(customerId) foreignKey
   not_null(countryId) foreignKey
   countryStateId foreignKey
   not_null(salutationId) foreignKey
   not_null(firstName) string
   not_null(lastName) string
   not_null(zipcode) string
   not_null(city) string
   company string
   not_null(street) string
   department string
   title string
   vatId string
   phoneNumber string
   additionalAddressLine1 string
   additionalAddressLine2 string
   attributes attributes
   not_null(createdAt) createdAt
   not_null(updatedAt) updatedAt
}
Table(ShopwareCoreCheckoutCustomerAggregateCustomerGroupCustomerGroupDefinition, "customer_group\n(Customer groups)") {
   primary_key(id) id
   name translated
   displayGross bool
   inputGross bool
   hasGlobalDiscount bool
   percentageGlobalDiscount float
   minimumOrderAmount float
   minimumOrderAmountSurcharge float
   attributes translated
   not_null(createdAt) createdAt
   not_null(updatedAt) updatedAt
}
Table(ShopwareCoreCheckoutCustomerAggregateCustomerGroupDiscountCustomerGroupDiscountDefinition, "customer_group_discount\n(Customer group discount)") {
   primary_key(id) id
   not_null(customerGroupId) foreignKey
   not_null(percentageDiscount) float
   not_null(minimumCartAmount) float
   attributes attributes
   not_null(createdAt) createdAt
   not_null(updatedAt) updatedAt
}
Table(ShopwareCoreCheckoutCustomerAggregateCustomerTagCustomerTagDefinition, "customer_tag\n(M:N Mapping)") {
   primary_key(customerId) foreignKey
   primary_key(tagId) foreignKey
   not_null(createdAt) createdAt
   not_null(updatedAt) updatedAt
}
ForeignTable(ShopwareCoreCheckoutPaymentPaymentMethodDefinition, "payment_method") {
}
ForeignTable(ShopwareCoreSystemSalesChannelSalesChannelDefinition, "sales_channel") {
}
ForeignTable(ShopwareCoreSystemLanguageLanguageDefinition, "language") {
}
ForeignTable(ShopwareCoreSystemSalutationSalutationDefinition, "salutation") {
}
ForeignTable(ShopwareCoreCheckoutOrderAggregateOrderCustomerOrderCustomerDefinition, "order_customer") {
}
ForeignTable(ShopwareCoreFrameworkSearchSearchDocumentDefinition, "search_document") {
}
ForeignTable(ShopwareCoreSystemCountryCountryDefinition, "country") {
}
ForeignTable(ShopwareCoreSystemCountryAggregateCountryStateCountryStateDefinition, "country_state") {
}
ForeignTable(ShopwareCoreFrameworkTagTagDefinition, "tag") {
}

' relationshipd

ShopwareCoreCheckoutCustomerAggregateCustomerGroupCustomerGroupDefinition --> ShopwareCoreCheckoutCustomerCustomerDefinition
ShopwareCoreCheckoutCustomerCustomerDefinition --> ShopwareCoreCheckoutPaymentPaymentMethodDefinition
ShopwareCoreCheckoutCustomerCustomerDefinition --> ShopwareCoreSystemSalesChannelSalesChannelDefinition
ShopwareCoreCheckoutCustomerCustomerDefinition --> ShopwareCoreSystemLanguageLanguageDefinition
ShopwareCoreCheckoutCustomerAggregateCustomerAddressCustomerAddressDefinition --> ShopwareCoreCheckoutCustomerCustomerDefinition
ShopwareCoreCheckoutCustomerCustomerDefinition --> ShopwareCoreSystemSalutationSalutationDefinition
ShopwareCoreCheckoutCustomerCustomerDefinition --> ShopwareCoreCheckoutOrderAggregateOrderCustomerOrderCustomerDefinition
ShopwareCoreCheckoutCustomerAggregateCustomerTagCustomerTagDefinition --> ShopwareCoreCheckoutCustomerCustomerDefinition
ShopwareCoreCheckoutCustomerCustomerDefinition --> ShopwareCoreFrameworkSearchSearchDocumentDefinition
ShopwareCoreCheckoutCustomerAggregateCustomerGroupCustomerGroupDefinition --> ShopwareCoreCheckoutCustomerAggregateCustomerGroupTranslationCustomerGroupTranslationDefinition
ShopwareCoreCheckoutCustomerAggregateCustomerGroupTranslationCustomerGroupTranslationDefinition --> ShopwareCoreSystemLanguageLanguageDefinition
ShopwareCoreCheckoutCustomerAggregateCustomerAddressCustomerAddressDefinition --> ShopwareCoreSystemCountryCountryDefinition
ShopwareCoreCheckoutCustomerAggregateCustomerAddressCustomerAddressDefinition --> ShopwareCoreSystemCountryAggregateCountryStateCountryStateDefinition
ShopwareCoreCheckoutCustomerAggregateCustomerAddressCustomerAddressDefinition --> ShopwareCoreSystemSalutationSalutationDefinition
ShopwareCoreCheckoutCustomerAggregateCustomerGroupDiscountCustomerGroupDiscountDefinition --> ShopwareCoreCheckoutCustomerAggregateCustomerGroupCustomerGroupDefinition
ShopwareCoreCheckoutCustomerAggregateCustomerTagCustomerTagDefinition --> ShopwareCoreFrameworkTagTagDefinition
@enduml
